<?xml version="1.0" standalone="no"?>
<!DOCTYPE svg PUBLIC "-//W3C//DTD SVG 20010904//EN"
 "http://www.w3.org/TR/2001/REC-SVG-20010904/DTD/svg10.dtd">
<svg version="1.0" xmlns="http://www.w3.org/2000/svg"
 width="256.000000pt" height="256.000000pt" viewBox="0 0 256.000000 256.000000"
 preserveAspectRatio="xMidYMid meet">

<g transform="translate(0.000000,256.000000) scale(0.100000,-0.100000)"
fill="#000000" stroke="none">
<path d="M0 1280 l0 -1280 1280 0 1280 0 0 1280 0 1280 -1280 0 -1280 0 0
-1280z m1879 760 c36 -69 88 -165 115 -215 27 -49 105 -195 173 -323 l125
-232 -237 -433 c-131 -237 -242 -438 -247 -444 -8 -10 -124 -13 -522 -12 -281
0 -519 4 -529 8 -11 4 -72 106 -146 246 -70 132 -176 328 -235 435 l-109 195
30 55 c138 261 241 455 268 505 18 33 65 122 104 197 l72 138 232 3 c128 1
368 2 535 2 l304 0 67 -125z"/>
<path d="M1262 2111 c-414 -5 -484 -8 -492 -21 -49 -75 -443 -810 -443 -825 0
-9 88 -169 378 -690 l73 -130 241 -3 241 -2 0 199 0 200 -50 132 c-27 73 -48
134 -46 136 2 3 25 -3 50 -11 59 -20 56 -20 56 8 0 19 -8 27 -35 36 -41 14
-94 71 -102 111 -4 22 -11 29 -29 29 -28 0 -29 -7 -8 -60 9 -23 14 -43 12 -46
-10 -10 -283 91 -286 106 -2 11 37 31 135 73 166 69 179 71 149 24 -8 -12 -17
-32 -21 -44 -5 -19 -3 -23 17 -23 17 1 28 12 43 43 55 115 218 119 276 6 14
-29 25 -39 44 -39 22 0 23 3 15 24 -5 14 -15 34 -22 45 -7 11 -9 23 -5 27 11
11 292 -110 295 -127 2 -10 -39 -28 -138 -63 -77 -27 -143 -46 -147 -43 -3 4
2 25 11 48 14 34 15 44 4 50 -25 16 -36 9 -43 -28 -8 -43 -73 -113 -105 -113
-15 0 -20 -7 -20 -29 0 -28 2 -29 28 -22 16 5 38 15 50 22 11 7 24 10 28 7 3
-4 -16 -60 -43 -125 -28 -65 -55 -131 -61 -148 -6 -16 -12 -114 -14 -218 l-3
-187 245 2 245 3 222 409 c123 225 223 414 223 420 0 6 -101 198 -224 426
-171 318 -228 415 -242 416 -10 0 -236 -2 -502 -5z m78 -79 c0 -26 -39 -420
-46 -465 -3 -22 -10 -35 -14 -30 -4 4 -17 103 -29 218 -12 116 -24 229 -28
253 l-5 42 61 0 c52 0 61 -3 61 -18z m-390 -183 c6 -11 72 -103 146 -204 74
-102 134 -189 134 -195 0 -35 -43 13 -170 188 -79 108 -145 205 -148 215 -6
24 25 22 38 -4z m697 5 c4 -15 -261 -428 -272 -423 -5 2 -9 9 -9 15 2 22 258
424 268 421 5 -2 11 -7 13 -13z m100 -806 c122 -57 222 -107 223 -112 0 -15
-62 -107 -71 -104 -16 6 -398 303 -398 311 -2 16 34 3 246 -95z m-707 88 c0
-11 -392 -316 -399 -311 -14 8 -63 96 -58 102 10 10 432 212 445 212 6 1 12
-1 12 -3z"/>
<path d="M1235 1400 c-61 -25 -91 -109 -61 -168 15 -29 60 -62 86 -62 6 0 10
43 10 120 0 66 -3 120 -7 119 -5 0 -17 -4 -28 -9z"/>
<path d="M1300 1290 c0 -134 4 -140 59 -95 63 54 60 146 -8 192 -19 13 -38 23
-42 23 -5 0 -9 -54 -9 -120z"/>
</g>
</svg>
