<?xml version="1.0" standalone="no"?>
<!DOCTYPE svg PUBLIC "-//W3C//DTD SVG 20010904//EN"
 "http://www.w3.org/TR/2001/REC-SVG-20010904/DTD/svg10.dtd">
<svg version="1.0" xmlns="http://www.w3.org/2000/svg"
 width="270.000000pt" height="270.000000pt" viewBox="0 0 270.000000 270.000000"
 preserveAspectRatio="xMidYMid meet">

<g transform="translate(0.000000,270.000000) scale(0.100000,-0.100000)"
fill="#000000" stroke="none">
<path d="M1785 2230 c-38 -4 -270 -8 -515 -9 -244 -1 -448 -5 -453 -10 -15
-15 -237 -421 -408 -747 l-69 -131 108 -194 c60 -107 130 -234 157 -284 57
-106 176 -317 202 -360 l18 -30 253 -3 252 -2 0 209 0 210 -34 93 c-19 51 -43
115 -55 141 -18 41 -18 49 -6 54 9 3 21 1 28 -4 6 -6 27 -13 45 -16 29 -6 32
-4 32 17 0 19 -8 27 -34 36 -46 15 -104 76 -112 116 -5 28 -11 34 -31 34 -23
0 -24 -3 -18 -32 4 -18 12 -39 17 -45 6 -7 8 -20 4 -28 -4 -12 -10 -13 -33 -3
-15 6 -82 30 -148 53 -67 24 -121 49 -122 56 -3 13 34 30 279 132 39 16 43 4
19 -46 -26 -54 -26 -57 3 -57 17 0 26 7 30 25 9 34 60 90 96 105 17 7 53 11
84 8 l54 -5 32 51 c17 28 72 116 122 196 50 80 97 157 105 172 18 34 32 43 45
30 8 -8 -15 -52 -76 -149 -48 -76 -111 -176 -140 -223 -32 -52 -58 -84 -67
-82 -8 2 -2 -9 12 -25 15 -15 34 -43 43 -60 12 -24 23 -33 41 -33 30 0 30 2 4
57 -12 24 -19 47 -15 50 3 3 65 -20 138 -51 73 -32 143 -61 156 -67 13 -5 22
-15 20 -22 -3 -6 -65 -34 -139 -60 -181 -65 -169 -62 -169 -40 0 10 4 23 9 28
4 6 11 22 15 37 5 21 2 28 -15 33 -24 8 -22 10 -37 -41 -14 -47 -80 -114 -112
-114 -16 0 -20 -7 -20 -30 0 -16 3 -30 6 -30 3 0 28 10 55 21 27 12 52 19 55
16 4 -3 -14 -52 -39 -109 -88 -197 -86 -189 -87 -370 -1 -89 -3 -179 -3 -198
l-2 -35 256 -3 256 -2 78 142 c43 79 109 199 146 268 36 69 105 195 153 280
48 85 89 165 92 177 6 22 -33 102 -206 423 -194 362 -263 483 -275 485 -5 1
-41 -1 -80 -5z m-380 -174 c-3 -57 -7 -110 -9 -117 -3 -8 -10 -68 -16 -134
-14 -157 -20 -199 -30 -188 -7 8 -36 250 -45 378 -2 33 -7 84 -10 113 l-6 52
60 0 61 0 -5 -104z m-398 -113 c10 -16 80 -113 155 -216 76 -104 138 -192 138
-198 0 -17 -26 -9 -47 14 -11 12 -42 54 -69 92 -26 39 -87 124 -136 189 -48
66 -88 126 -88 133 0 23 29 14 47 -14z m753 -799 c234 -106 319 -148 319 -159
1 -6 -15 -34 -34 -62 l-35 -53 -150 118 c-83 64 -180 137 -215 162 -120 84
-76 81 115 -6z m-670 48 c0 -5 -21 -24 -46 -42 -26 -18 -88 -67 -140 -109
-229 -187 -221 -181 -236 -163 -17 19 -58 87 -58 94 0 3 33 20 73 38 39 18 78
37 84 43 19 14 296 145 311 146 6 1 12 -3 12 -7z"/>
<path d="M1310 1483 c-41 -15 -90 -82 -90 -123 0 -37 32 -91 64 -111 55 -33
56 -31 56 111 0 72 -3 130 -7 129 -5 0 -15 -3 -23 -6z"/>
<path d="M1370 1366 c0 -80 4 -127 11 -132 13 -8 55 22 83 60 25 33 26 95 2
131 -16 24 -71 65 -88 65 -5 0 -8 -56 -8 -124z"/>
</g>
</svg>
